<?xml version="1.0" encoding="utf-8"?>
<!-- Generator: Adobe Illustrator 27.5.0, SVG Export Plug-In . SVG Version: 6.00 Build 0)  -->
<svg version="1.1" xmlns="http://www.w3.org/2000/svg" xmlns:xlink="http://www.w3.org/1999/xlink" x="0px" y="0px"
	 viewBox="0 0 3710 3710" style="enable-background:new 0 0 3710 3710;" xml:space="preserve">
<g id="Background">
	<g>
		<g>
			<rect style="fill:#FFFFFF;" width="3710" height="3710"/>
		</g>
	</g>
</g>
<g id="Illustration">
	<g>
		<linearGradient id="SVGID_1_" gradientUnits="userSpaceOnUse" x1="3502.5476" y1="3712.6313" x2="1530.1744" y2="1613.0089">
			<stop  offset="0" style="stop-color:#DAE3FE"/>
			<stop  offset="1" style="stop-color:#E9EFFD"/>
		</linearGradient>
		<path style="fill:url(#SVGID_1_);" d="M2910.344,2870.271c-72.812,75.052-137.961,119.17-187.842,152.477
			c-486.478,324.825-1042.575,231.203-1214.506,199.203c-277.39-51.628-511.546-88.05-712.727-269.809
			c-457.145-413.013-434.91-1274.588-85.596-1808.296c41.418-63.282,390.204-580.291,947.505-653.142
			c13.631-1.782,23.801-2.797,32.709-3.74c86.213-9.128,620.459-57.304,1056.083,307.662
			c62.358,52.243,162.709,146.476,255.767,290.197C3341.999,1610.331,3343.077,2424.228,2910.344,2870.271z"/>
		<g>
			<g>
				<path style="fill:#BDD0FB;" d="M2322.646,1938.651c0,0-7.686-323.146,141.152-409.634
					c148.837-86.488,431.83-140.561,442.438-604.567c6.211-271.65,12.932-390.42,17.437-442.209
					c1.757-20.202-16.195-36.509-36.123-32.755c-140.962,26.555-598.885,135.856-694.892,448.41
					C2078.841,1268.431,2322.646,1938.651,2322.646,1938.651z"/>
				<path style="opacity:0.5;fill:#FFFFFF;" d="M2778.535,578.587c-154.733,138.001-333.655,382.233-429.021,626.466
					c-12.241,40.251-48.049,125.849-63.599,277.935c-13.888,126.842-6.984,260.875,9.856,349.599
					c1.065,5.609,6.475,9.293,12.084,8.228c9.645-1.83,8.362-12.203,8.275-11.876c-19.233-151.586-11.25-340.261,32.82-510.5
					c56.303-209.034,181.881-411.7,311.769-583.589l13.366-16.926c100.632-129.235,121.817-130.188,112.41-139.196
					C2784.274,576.6,2780.796,576.581,2778.535,578.587z"/>
			</g>
			<g>
				<path style="fill:#91B3FA;" d="M2139.347,2522.327c-24.053,11.794,227.712-304.802,306.578-802.041
					c37.163-234.312,37.649-527.885,171.123-641.017c111.086-94.157,489.099-34.712,612.784-12.122
					c15.455,2.822,20.658,22.346,8.628,32.45c-59.314,49.813-186.198,167.312-219.259,285.728
					c-43.576,156.082-191.967,255.358-324.813,282.225c-132.847,26.867-206.746,52.941-271.465,265.392
					C2358.205,2145.393,2207.692,2488.815,2139.347,2522.327z"/>
				<path style="fill:#BDD0FB;" d="M3055.876,1133.094c-157.804,6.609-327.194,78.594-413.154,213.623l-8.114,12.885
					c-18.739,30.212-124.939,244.986-183.922,423.022c-0.734,2.219,0.469,4.615,2.688,5.35c3.77,1.248,5.658-2.9,5.298-2.534
					c41.095-100.577,100.117-228.093,147.125-323.45c50.412-104.054,85.69-174.523,200.677-242.022
					c127.984-72.693,250.254-80.176,249.887-80.101c1.866-0.191,3.225-1.858,3.034-3.724
					C3059.213,1134.348,3057.654,1133.023,3055.876,1133.094z"/>
			</g>
		</g>
		<g>
			
				<linearGradient id="SVGID_00000008146792296943572510000003902076540148733605_" gradientUnits="userSpaceOnUse" x1="6154.2847" y1="2174.3457" x2="3966.1377" y2="5048.416" gradientTransform="matrix(0.9995 0.0321 -0.0321 0.9995 -3826.0955 -1546.4924)">
				<stop  offset="0" style="stop-color:#09005D"/>
				<stop  offset="1" style="stop-color:#1A0F91"/>
			</linearGradient>
			<path style="fill:url(#SVGID_00000008146792296943572510000003902076540148733605_);" d="M688.103,731.705l1379.713,44.27
				c76.118,2.443,136.969,64.107,138.4,140.251l37.658,2003.593c1.12,59.585-47.318,108.26-106.908,107.432L554.72,3005.252
				c-55.992-0.778-100.457-47.336-98.661-103.305l64.597-2013.206C523.531,799.138,598.5,728.83,688.103,731.705z"/>
			<path style="fill:#BDD0FB;" d="M787.049,2978.25c-0.053,0-0.102,0-0.154-0.003l-176.869-7.966
				c-58.918-2.653-105.306-52.767-103.413-111.711l8.571-267.147c0.056-1.861,1.746-3.376,3.472-3.255
				c1.857,0.059,3.317,1.614,3.255,3.472l-8.571,267.147c-1.775,55.282,41.733,102.279,96.989,104.767l176.869,7.966
				c1.858,0.082,3.294,1.657,3.212,3.514C790.327,2976.84,788.837,2978.25,787.049,2978.25z"/>
			<path style="fill:#BDD0FB;" d="M521.206,2512.144c-0.039,0-0.076,0-0.112-0.003c-1.857-0.059-3.317-1.614-3.255-3.472
				l1.387-43.262c0.056-1.821,1.552-3.258,3.36-3.258c0.039,0,0.076,0,0.112,0.003c1.857,0.059,3.317,1.614,3.255,3.472
				l-1.387,43.262C524.511,2510.708,523.015,2512.144,521.206,2512.144z"/>
			<g>
				
					<linearGradient id="SVGID_00000078758901270344475160000010720677683323167633_" gradientUnits="userSpaceOnUse" x1="6305.4077" y1="4234.0459" x2="4408.8911" y2="6056.0596" gradientTransform="matrix(0.9345 -0.3558 0.3558 0.9345 -5517.2021 -922.9438)">
					<stop  offset="0" style="stop-color:#4F52FF"/>
					<stop  offset="1" style="stop-color:#4042E2"/>
				</linearGradient>
				<path style="fill:url(#SVGID_00000078758901270344475160000010720677683323167633_);" d="M692.867,715.627
					c187.593,31.596,832.957,131.408,1369.953,107.475c24.489-1.092,45.095,18.097,45.611,42.605l42.317,2012.668
					c0.58,27.597-21.214,50.481-48.807,51.227c-225.723,6.104-1155.214,27.873-1485.047-17.409
					c-20.074-2.756-34.819-20.205-34.289-40.46l55.301-2110.818C638.658,732.242,664.582,710.863,692.867,715.627z"/>
				<path style="fill:#BDD0FB;" d="M711.375,768.395c180.529,30.406,801.591,126.46,1318.367,103.428
					c23.567-1.05,43.397,17.416,43.893,41.001l40.723,1936.88c0.559,26.558-20.414,48.58-46.969,49.298
					c-217.223,5.874-1111.713,26.823-1429.126-16.754c-19.319-2.653-33.509-19.444-32.998-38.938l53.219-2031.333
					C659.207,784.384,684.155,763.81,711.375,768.395z"/>
				<path style="opacity:0.78;fill:#FFFFFF;" d="M821.551,966.44l5.956,415.159c0.198,13.808,10.984,25.128,24.768,25.96
					c76.704,4.629,315.745,18.14,451.049,15.432c15.305-0.307,27.79-12.279,28.787-27.555c5.07-77.659,17.967-303.751,3.287-398.91
					c-2.371-15.371-15.146-26.988-30.664-28.029l-453.273-30.43C835.115,936.969,821.316,950.06,821.551,966.44z"/>
				<path style="fill:#91B3FA;" d="M1167.024,1125.886c-1.579,49.216-42.757,87.833-91.973,86.254
					c-49.216-1.579-87.833-42.756-86.255-91.973c1.58-49.216,42.757-87.833,91.973-86.254
					C1129.986,1035.492,1168.603,1076.67,1167.024,1125.886z"/>
				<path style="fill:#91B3FA;" d="M934.159,1380.317l283.903,9.109c17.407,0.559,28.452-18.327,19.55-33.294
					c-22.904-38.508-71.58-95.561-159.041-95.864c-84.294-0.291-135.817,48.18-162.062,83.287
					C905.368,1358.459,915.561,1379.72,934.159,1380.317z"/>
				<g style="opacity:0.6;">
					<path style="fill:#FFFFFF;" d="M1967.859,1039.343c2.199,0.071,4.003-1.672,4.009-3.872l0.057-19.839
						c0.006-2.2-1.786-4.09-3.984-4.2L1446.3,985.385c-2.197-0.11-3.452,1.517-2.788,3.614l9.512,30.051
						c0.664,2.098,3.006,3.871,5.205,3.942L1967.859,1039.343z"/>
				</g>
				<g style="opacity:0.6;">
					<path style="fill:#FFFFFF;" d="M1443.821,1062.665c-2.197-0.11-3.452,1.517-2.788,3.614l9.512,30.051
						c0.664,2.097,3.006,3.871,5.205,3.942l509.63,16.353c2.199,0.071,4.003-1.672,4.009-3.872l0.057-19.839
						c0.006-2.2-1.786-4.09-3.984-4.199L1443.821,1062.665z"/>
				</g>
				<g style="opacity:0.6;">
					<path style="fill:#FFFFFF;" d="M1441.304,1141.068c-2.197-0.11-3.452,1.517-2.788,3.614l9.512,30.051
						c0.664,2.097,3.006,3.871,5.205,3.942l509.63,16.353c2.199,0.071,4.003-1.672,4.009-3.872l0.057-19.839
						c0.006-2.2-1.786-4.09-3.984-4.2L1441.304,1141.068z"/>
				</g>
				<g style="opacity:0.6;">
					<path style="fill:#FFFFFF;" d="M1999.065,1574.68c2.199,0.071,3.937-1.671,3.862-3.869l-0.674-19.876
						c-0.074-2.199-1.934-4.07-4.132-4.157L808.323,1499.21c-2.198-0.088-2.921,1.284-1.607,3.048l23.69,31.794
						c1.315,1.764,4.189,3.265,6.388,3.336L1999.065,1574.68z"/>
				</g>
				<g style="opacity:0.6;">
					<path style="fill:#FFFFFF;" d="M805.844,1576.49c-2.198-0.088-2.921,1.284-1.607,3.048l23.691,31.794
						c1.315,1.764,4.189,3.265,6.388,3.336l1162.271,37.293c2.199,0.071,3.937-1.671,3.863-3.869l-0.674-19.877
						c-0.074-2.199-1.934-4.07-4.132-4.158L805.844,1576.49z"/>
				</g>
				<g>
					<path style="fill:#FFFFFF;" d="M961.682,1879.94c-0.378,0-0.756-0.006-1.138-0.023l-98.36-4.103
						c-13.841-0.575-24.966-10.455-25.874-22.977l-6-82.829c-0.345-4.751,1.276-9.386,4.567-13.052
						c3.689-4.113,9.156-6.592,14.998-6.802l0,0c8.295-0.302,19.976-0.921,32.344-1.575c26.111-1.387,58.612-3.104,76.836-2.749
						c12.924,0.256,23.839,8.413,26.541,19.838c4.504,19.078,2.903,54.894,0.7,93.037
						C985.613,1870.616,974.685,1879.94,961.682,1879.94z M953.732,1752.517c-18.569,0-47.497,1.532-71.158,2.785
						c-12.394,0.658-24.105,1.276-32.456,1.578l0,0c-4.024,0.145-7.752,1.812-10.231,4.573c-2.058,2.292-3.074,5.158-2.863,8.068
						l6,82.829c0.661,9.107,9.021,16.304,19.443,16.737l98.36,4.103c9.722,0.424,18.253-6.26,18.75-14.873
						c2.17-37.624,3.764-72.904-0.536-91.101c-1.992-8.433-10.267-14.459-20.117-14.653
						C957.306,1752.53,955.567,1752.517,953.732,1752.517z"/>
					<g style="opacity:0.6;">
						<path style="fill:#FFFFFF;" d="M1045.833,1797.37c-2.199-0.077-3.594,1.614-3.102,3.758l9.599,41.786
							c0.492,2.144,2.695,3.937,4.895,3.985l916.96,19.822c2.199,0.047,4.017-1.714,4.04-3.913l0.294-28.73
							c0.022-2.2-1.758-4.063-3.957-4.14L1045.833,1797.37z"/>
					</g>
					
						<linearGradient id="SVGID_00000149368713897423205920000001360565790166336400_" gradientUnits="userSpaceOnUse" x1="921.8923" y1="1336.5123" x2="917.4037" y2="1601.3472">
						<stop  offset="0" style="stop-color:#FF928E"/>
						<stop  offset="1" style="stop-color:#FE7062"/>
					</linearGradient>
					<path style="fill:url(#SVGID_00000149368713897423205920000001360565790166336400_);" d="M864.22,1779.233L864.22,1779.233
						c7.442-4.051,16.76-1.193,20.648,6.336l18.29,35.41c1.831,3.545,6.919,3.487,8.67-0.098l51.572-105.616
						c2.573-5.268,10.475-3.206,10.2,2.651c-1.543,32.762-12.24,94.789-66.286,145.262c0,0-28.502-12.145-50.108-63.929
						C854.085,1791.769,857.101,1783.108,864.22,1779.233z"/>
					<path style="fill:#FFFFFF;" d="M954.916,2090.813c-0.378,0-0.756-0.007-1.138-0.023l-98.36-4.103
						c-13.841-0.575-24.966-10.455-25.874-22.978l-6-82.829c-0.345-4.751,1.276-9.386,4.567-13.052
						c3.689-4.113,9.156-6.592,14.998-6.802l0,0c8.295-0.302,19.976-0.92,32.344-1.575c26.107-1.387,58.605-3.133,76.836-2.748
						c12.924,0.253,23.835,8.41,26.541,19.838c4.504,19.078,2.903,54.894,0.7,93.037
						C978.847,2081.489,967.919,2090.813,954.916,2090.813z M946.966,1963.39c-18.569,0-47.497,1.532-71.158,2.785
						c-12.394,0.657-24.105,1.276-32.456,1.578l0,0c-4.024,0.145-7.752,1.812-10.231,4.573c-2.058,2.291-3.074,5.158-2.863,8.068
						l6,82.829c0.661,9.107,9.021,16.303,19.443,16.737l98.36,4.103c9.761,0.45,18.256-6.26,18.75-14.874
						c2.17-37.624,3.764-72.903-0.536-91.1c-1.963-8.301-10.422-14.466-20.117-14.653
						C950.54,1963.403,948.804,1963.39,946.966,1963.39z"/>
					<path style="opacity:0.6;fill:#FFFFFF;" d="M853.68,1977.025c20.714-0.75,65.784-3.869,87.098-3.451
						c9.032,0.178,16.775,5.886,18.641,13.782c3.624,15.336,2.107,45.625,0.496,73.573c-0.483,8.37-8.391,14.811-17.783,14.418
						l-78.601-3.278c-9.666-0.403-17.482-7.253-18.106-15.869l-4.795-66.191C840.133,1983.164,846.001,1977.303,853.68,1977.025z"/>
					<g style="opacity:0.6;">
						<path style="fill:#FFFFFF;" d="M1039.067,2008.243c-2.199-0.077-3.595,1.614-3.102,3.758l9.599,41.786
							c0.493,2.144,2.695,3.938,4.895,3.985l916.96,19.822c2.199,0.048,4.018-1.713,4.04-3.913l0.293-28.73
							c0.022-2.2-1.758-4.063-3.957-4.14L1039.067,2008.243z"/>
					</g>
					<path style="fill:#FFFFFF;" d="M948.15,2301.686c-0.378,0-0.756-0.007-1.138-0.023l-98.36-4.103
						c-13.841-0.575-24.966-10.455-25.874-22.977l-6-82.829c-0.345-4.748,1.276-9.383,4.563-13.049
						c3.692-4.116,9.159-6.598,15.002-6.809l0,0c8.311-0.302,20.022-0.921,32.419-1.578c26.084-1.381,58.556-3.13,76.76-2.742
						c12.924,0.253,23.836,8.41,26.541,19.838c4.501,19.058,2.9,54.884,0.7,93.037
						C972.077,2292.365,961.149,2301.686,948.15,2301.686z M836.587,2178.622c-4.024,0.148-7.755,1.815-10.231,4.576
						c-2.058,2.295-3.074,5.158-2.864,8.068l6,82.829c0.661,9.107,9.021,16.303,19.443,16.737l98.36,4.103
						c9.83,0.437,18.25-6.263,18.749-14.873c2.167-37.637,3.758-72.927-0.536-91.101c-1.963-8.302-10.422-14.466-20.117-14.653
						c-17.987-0.375-50.301,1.358-76.273,2.732C856.691,2177.698,844.954,2178.32,836.587,2178.622L836.587,2178.622z"/>
					<path style="opacity:0.6;fill:#FFFFFF;" d="M846.914,2187.898c20.714-0.75,65.784-3.87,87.099-3.451
						c9.032,0.178,16.775,5.885,18.641,13.782c3.624,15.336,2.107,45.625,0.495,73.573c-0.482,8.37-8.391,14.811-17.783,14.419
						l-78.601-3.278c-9.666-0.403-17.482-7.253-18.107-15.869l-4.795-66.191C833.367,2194.037,839.235,2188.176,846.914,2187.898z"
						/>
					<g style="opacity:0.6;">
						<path style="fill:#FFFFFF;" d="M1032.301,2219.115c-2.199-0.077-3.595,1.614-3.102,3.758l9.599,41.785
							c0.492,2.144,2.695,3.938,4.895,3.985l916.96,19.822c2.199,0.047,4.017-1.714,4.04-3.914l0.294-28.73
							c0.022-2.2-1.758-4.063-3.957-4.14L1032.301,2219.115z"/>
					</g>
					<path style="fill:#FFFFFF;" d="M941.384,2512.558c-0.378,0-0.756-0.007-1.137-0.023l-98.36-4.103
						c-13.841-0.575-24.966-10.455-25.874-22.977l-6-82.829c-0.345-4.751,1.276-9.383,4.563-13.052
						c3.692-4.113,9.159-6.595,15.002-6.805l0,0c8.311-0.302,20.022-0.921,32.419-1.578c26.084-1.384,58.553-3.107,76.76-2.742
						c12.924,0.253,23.835,8.41,26.538,19.841c4.504,19.052,2.903,54.881,0.704,93.034
						C965.312,2503.238,954.383,2512.558,941.384,2512.558z M829.821,2389.495c-4.027,0.148-7.755,1.815-10.231,4.576
						c-2.058,2.291-3.074,5.158-2.864,8.068l6,82.829c0.661,9.107,9.021,16.303,19.443,16.737l98.36,4.103
						c9.906,0.464,18.253-6.263,18.749-14.873c2.167-37.637,3.758-72.927-0.539-91.097c-1.959-8.304-10.419-14.469-20.114-14.656
						c-17.98-0.368-50.298,1.358-76.273,2.732C849.925,2388.571,838.188,2389.193,829.821,2389.495L829.821,2389.495z"/>
					<path style="opacity:0.6;fill:#FFFFFF;" d="M840.147,2398.77c20.715-0.749,65.784-3.869,87.098-3.451
						c9.032,0.177,16.775,5.886,18.641,13.782c3.624,15.336,2.107,45.625,0.495,73.573c-0.482,8.371-8.391,14.811-17.782,14.419
						l-78.602-3.279c-9.665-0.403-17.481-7.253-18.106-15.868l-4.796-66.191C826.601,2404.909,832.469,2399.048,840.147,2398.77z"/>
					<g style="opacity:0.6;">
						<path style="fill:#FFFFFF;" d="M1025.534,2429.988c-2.199-0.077-3.595,1.614-3.102,3.758l9.599,41.786
							c0.493,2.144,2.695,3.938,4.895,3.985l916.96,19.822c2.199,0.048,4.017-1.713,4.04-3.913l0.294-28.73
							c0.022-2.2-1.758-4.063-3.957-4.14L1025.534,2429.988z"/>
					</g>
				</g>
			</g>
			
				<linearGradient id="SVGID_00000104695256185948003240000006266469314126317203_" gradientUnits="userSpaceOnUse" x1="-2989.2158" y1="-742.2903" x2="-3644.6882" y2="119.9685" gradientTransform="matrix(-0.9098 -0.415 -0.415 0.9098 -1708.5862 -375.6195)">
				<stop  offset="0" style="stop-color:#09005D"/>
				<stop  offset="1" style="stop-color:#1A0F91"/>
			</linearGradient>
			<path style="fill:url(#SVGID_00000104695256185948003240000006266469314126317203_);" d="M1472.282,483.852
				c-48.725-36.27-92.081-36.973-122.875-28.951c-28.09,7.318-46.988,33.606-45.269,62.584l8.548,144.015l156.1,18.915
				C1468.786,680.414,1567.838,554.983,1472.282,483.852z M1399.722,597.487c-21.558-0.692-38.473-18.727-37.781-40.286
				c0.692-21.558,18.728-38.474,40.286-37.782c21.558,0.692,38.474,18.729,37.782,40.287
				C1439.317,581.264,1421.28,598.179,1399.722,597.487z"/>
			<path style="fill:#BDD0FB;" d="M1330.385,601.184c-1.769,0-3.251-1.378-3.357-3.166l-1.364-22.931
				c-0.112-1.857,1.305-3.452,3.159-3.56c1.907-0.079,3.452,1.305,3.56,3.159l1.365,22.931c0.112,1.858-1.305,3.452-3.159,3.561
				C1330.52,601.181,1330.45,601.184,1330.385,601.184z M1327.715,556.242c-1.769,0-3.251-1.378-3.357-3.166l-1.036-17.415
				c-1.624-27.409,16.389-52.303,42.828-59.194c18.789-4.892,38.002-5.063,57.09-0.513c1.808,0.431,2.923,2.245,2.492,4.057
				c-0.431,1.808-2.249,2.923-4.057,2.492c-18.007-4.29-36.118-4.136-53.829,0.48c-23.339,6.082-39.238,28.07-37.805,52.277
				l1.036,17.415c0.112,1.857-1.305,3.452-3.159,3.56C1327.85,556.239,1327.781,556.242,1327.715,556.242z"/>
			
				<linearGradient id="SVGID_00000072999832976197916620000008264386945684544165_" gradientUnits="userSpaceOnUse" x1="5584.4102" y1="1706.0796" x2="4949.4556" y2="2541.3474" gradientTransform="matrix(0.9995 0.0321 -0.0321 0.9995 -3826.0955 -1546.4924)">
				<stop  offset="0" style="stop-color:#09005D"/>
				<stop  offset="1" style="stop-color:#1A0F91"/>
			</linearGradient>
			<path style="fill:url(#SVGID_00000072999832976197916620000008264386945684544165_);" d="M1096.052,747.44l2.317-72.193
				c0.8-24.922,22.095-44.218,46.975-42.566l497.197,33.025c22.065,1.465,39.394,19.475,40.01,41.58l1.934,69.501L1096.052,747.44z"
				/>
			<path style="fill:#BDD0FB;" d="M1284.631,663.965c-0.04,0-0.076,0-0.112-0.003l-21.409-0.687
				c-1.858-0.059-3.317-1.614-3.255-3.472c0.056-1.821,1.552-3.258,3.36-3.258c0.039,0,0.076,0,0.112,0.003l21.409,0.687
				c1.857,0.059,3.317,1.614,3.255,3.472C1287.935,662.528,1286.439,663.965,1284.631,663.965z"/>
			<path style="fill:#BDD0FB;" d="M1123.845,725.224c-0.039,0-0.076,0-0.112-0.003c-1.857-0.059-3.317-1.614-3.255-3.472
				l0.937-29.204c0.717-22.336,19.473-40.011,41.809-39.208l78.696,2.525c1.858,0.059,3.317,1.614,3.255,3.472
				c-0.056,1.821-1.552,3.258-3.36,3.258c-0.039,0-0.076,0-0.112-0.003l-78.696-2.525c-18.687-0.44-34.267,14.074-34.865,32.699
				l-0.937,29.204C1127.149,723.787,1125.653,725.224,1123.845,725.224z"/>
			<path style="fill:#91B3FA;" d="M940.939,716.013l870.399,27.904c31.297,1.003,57.331,24.385,61.681,55.395l0.6,4.279
				c4.764,33.967-22.234,64.027-56.515,62.927l-892.977-28.652c-20.516-0.658-36.313-18.336-34.671-38.797l3.203-39.906
				C894.662,734.202,915.911,715.211,940.939,716.013z"/>
		</g>
		<g>
			
				<linearGradient id="SVGID_00000183927971214010861600000004929617638512580492_" gradientUnits="userSpaceOnUse" x1="-1391.9767" y1="3420.2112" x2="1362.9097" y2="419.7155" gradientTransform="matrix(-1 0 0 1 2138.7866 0)">
				<stop  offset="0" style="stop-color:#FDF53F"/>
				<stop  offset="0.6645" style="stop-color:#E57A58"/>
				<stop  offset="1" style="stop-color:#D93C65"/>
			</linearGradient>
			<path style="fill:url(#SVGID_00000183927971214010861600000004929617638512580492_);" d="M2427.042,1279.322
				c-88.411-47.977-161.953-29.083-239.197,200.787c-85.904,255.64-70.931,368.688-90.159,630.123
				c-17.323,235.531,51.196,651.388,97.627,846.472c25.055,105.271,231.24,111.399,348.209,133.789
				c97.093,18.586,420.859,32.357,567.663,87.371s116.104-206.384,92.027-355.611
				C3179.136,2673.027,3012.561,1597.059,2427.042,1279.322z"/>
			
				<linearGradient id="SVGID_00000092429708124427860040000016168264066701040801_" gradientUnits="userSpaceOnUse" x1="-734.3906" y1="3924.4426" x2="1952.9165" y2="997.5511" gradientTransform="matrix(-1 0 0 1 2138.7866 0)">
				<stop  offset="0" style="stop-color:#FDF53F"/>
				<stop  offset="0.6645" style="stop-color:#E57A58"/>
				<stop  offset="1" style="stop-color:#D93C65"/>
			</linearGradient>
			<path style="fill:url(#SVGID_00000092429708124427860040000016168264066701040801_);" d="M1627.098,1279.322
				c88.411-47.977,161.953-29.083,239.197,200.787c85.903,255.64,70.931,368.688,90.159,630.123
				c17.323,235.531-51.196,651.388-97.627,846.472c-25.055,105.271-231.24,111.399-348.209,133.789
				c-97.093,18.586-420.859,32.357-567.663,87.371s-116.104-206.384-92.028-355.611
				C875.004,2673.027,1041.58,1597.059,1627.098,1279.322z"/>
			
				<linearGradient id="SVGID_00000091718627462097333350000013662638801552603555_" gradientUnits="userSpaceOnUse" x1="-474.2154" y1="5328.6172" x2="4303.8296" y2="124.5899">
				<stop  offset="0" style="stop-color:#09005D"/>
				<stop  offset="1" style="stop-color:#1A0F91"/>
			</linearGradient>
			<path style="fill:url(#SVGID_00000091718627462097333350000013662638801552603555_);" d="M3147.594,3222.273
				c-15.359-0.004-31.97-3.314-49.368-9.833c-95.512-35.792-276.992-54.063-409.503-67.408
				c-64.165-6.458-119.58-12.04-152.146-18.275c-21.242-4.063-46.027-7.644-72.265-11.431
				c-124.206-17.936-278.784-40.256-304.92-150.073c-40.283-169.249-117.37-601.597-98.532-857.729
				c4.228-57.489,6.847-108.869,9.161-154.2c1.396-27.403,2.747-53.866,4.34-79.64c0.631-10.221-7.387-19.094-17.628-19.111
				c-0.065,0-0.13,0-0.195,0c-10.735,0-22.378,1.504-34.606,4.468c-11.786,2.858-22.824,6.139-33.493,9.983
				c-5.182,1.867-8.519,6.886-8.191,12.384c1.387,23.233,2.604,47.104,3.868,71.887c2.313,45.34,4.933,96.728,9.163,154.229
				c18.837,256.132-58.249,688.48-98.532,857.729c-26.135,109.817-180.714,132.137-304.92,150.073
				c-26.24,3.786-51.023,7.367-72.267,11.431c-32.565,6.235-87.98,11.816-152.144,18.275
				c-132.51,13.345-313.991,31.616-409.505,67.408c-17.407,6.523-34.021,9.833-49.377,9.833c-28.997,0-54.203-11.6-72.891-33.546
				c-46.076-54.102-51.986-168.942-19.169-372.357l0.921-5.722c42.026-261.325,103.474-503.921,182.639-721.056
				c154.086-422.633,359.81-706.167,611.453-842.723c32.096-17.418,60.851-25.885,87.908-25.885
				c83.528,0,146.415,76.289,203.901,247.363c4.603,13.7,8.97,27.149,13.106,40.373c4.034,12.897,22.919,10.866,24.148-2.591
				c0.017-0.183-14.314-303.475-22.645-389.437l-0.648-6.69c-0.215-2.212,0.17-4.442,1.114-6.455l2.854-6.088
				c13.073-27.891,50.066-75.096,105.787-75.096c38.74,0,77.389,22.526,114.878,66.956l0,0c5.692,6.746,8.779,15.308,8.701,24.134
				l0,0c-0.985,112.902,2.252,360.847,4.253,354.896c57.487-171.076,120.371-247.365,203.901-247.365
				c27.056,0,55.812,8.467,87.907,25.885c251.643,136.556,457.365,420.09,611.451,842.723
				c79.165,217.135,140.613,459.73,182.639,721.056l0.921,5.722c32.824,203.436,26.914,318.28-19.162,372.368
				c-18.685,21.938-43.887,33.534-72.88,33.534C3147.613,3222.273,3147.606,3222.273,3147.594,3222.273z"/>
			
				<linearGradient id="SVGID_00000026137272127401338030000002492684147538905275_" gradientUnits="userSpaceOnUse" x1="2609.4836" y1="-322.7228" x2="2447.8892" y2="599.7111">
				<stop  offset="0" style="stop-color:#FF928E"/>
				<stop  offset="1" style="stop-color:#FE7062"/>
			</linearGradient>
			<path style="fill:url(#SVGID_00000026137272127401338030000002492684147538905275_);" d="M3203.212,2822.254
				c-24.077-149.227-190.651-1225.196-776.17-1542.932c-88.411-47.977-161.953-29.083-239.197,200.787
				c-17.295,51.468-30.501,97.157-40.721,139.44c-3.692,15.279-25.594,15.069-28.881-0.302c-4.781-22.352-5.146-41.174-6.574-49.748
				c-3.786-22.716,0-456.37,0-456.37c-102.22-121.149-159.009,0-159.009,0s30.287,312.504,22.716,395.794
				c-3.768,41.444-9.415,78.196-19.268,107.928c-8.235,24.849-44.068,23.108-50.314-2.315
				c-10.044-40.879-22.883-84.986-39.497-134.429c-77.245-229.87-150.786-248.765-239.197-200.787
				c-585.519,317.736-752.094,1393.704-776.17,1542.932c-24.077,149.227-54.777,410.626,92.028,355.611
				c146.804-55.014,470.57-68.785,567.663-87.37c116.969-22.39,323.154-28.519,348.209-133.79
				c46.431-195.084,114.95-610.942,97.627-846.472c-7.692-104.583-9.914-185.414-15.307-261.132
				c18.205-8.983,41.352-18.493,72.086-25.944c43.591-10.567,75.181-4.528,101.238,6.35c-6.53,81.47-8.428,167.076-16.786,280.725
				c-17.323,235.53,51.196,651.388,97.627,846.472c25.055,105.271,231.24,111.399,348.209,133.79
				c97.093,18.586,420.859,32.357,567.663,87.37C3257.989,3232.88,3227.289,2971.481,3203.212,2822.254z"/>
			
				<linearGradient id="SVGID_00000181047518876435193240000006897799868897616532_" gradientUnits="userSpaceOnUse" x1="2351.8328" y1="1140.0582" x2="2681.7529" y2="-556.6812">
				<stop  offset="0" style="stop-color:#E1473D"/>
				<stop  offset="1" style="stop-color:#E9605A"/>
			</linearGradient>
			<path style="fill:url(#SVGID_00000181047518876435193240000006897799868897616532_);" d="M2839.912,2935.397
				c-9.692-21.959,2.271-47.724,18.512-65.396c16.241-17.672,36.967-31.351,50.273-51.328
				c38.174-57.312-3.396-138.027-62.088-174.042c-58.693-36.014-129.915-44.388-193.589-70.607
				c-127.839-52.644-219.75-183.15-226.245-321.251c-2.064-43.88,16.169-100.315,60.087-101.312
				c39.169-0.889,62.337,45.329,63.397,84.494c1.06,39.165-9.543,80.101,4.839,116.546c15.911,40.318,85.121,60.546,95.736,9.276
				c5.265-25.43-7.607-50.915-29.985-64.094c-30.661-18.058-69.025-78.485-30.198-101.867c9.833-5.921,21.744-7.255,32.934-4.697
				c52.442,11.99,127.32,33.811,135.396,91.544c3.715,26.557-8.854,52.298-19.385,76.96c-13.036,30.53-23.322,66.953,3.079,94.33
				c16.3,16.902,40.836,15.226,52.754-5.006c20.807-35.323-44.505-78.861-20.607-114.373c11.759-17.473,35.291-19.155,51.086-5.223
				c28.709,25.323,22.744,62.209,17.129,95.301c-8.469,49.92-14.381,103.353,6.684,149.396c21.066,46.042,78.95,78.76,123.889,55.43
				c53.138-27.585,50.609-104.888,30.282-161.204c-75.353-208.77-281.148-346.13-493.754-409.86
				c-43.446-13.023-91.386-26.157-117.222-63.435c-25.836-37.279-5.507-104.677,39.744-101.594
				c35.781,2.438,53.831,42.504,72.227,73.291c18.396,30.789,63.329,57.646,86.512,30.28c18.8-22.192-0.654-57.849-26.726-70.74
				c-26.073-12.889-56.827-13.172-83.378-25.046c-26.551-11.874-48.548-45.106-32.44-69.323
				c21.244-31.937,70.599-7.489,98.738,18.579c40.501,37.523,81.002,75.044,121.503,112.566
				c15.069,13.96,31.327,28.531,51.558,32.096c34.535,6.083,67.713-24.973,73.391-59.576c5.678-34.606-10.092-69.582-31.958-96.998
				c-74.846-93.843-207.326-113.396-326.689-126.074c42.854-28.649,87.957-59.946,107.959-107.455
				c20.002-47.511,0.839-114.95-49.465-126.211c-48.088-10.763-91.362,33.423-111.374,78.455
				c-20.011,45.032-29.341,96.736-63.233,132.508c-35.853,37.84-96.263,44.078-143.272,23.321
				c-63.55-46.088-60.978-123.332-64.349-143.561c-3.786-22.715,0-456.368,0-456.368c-102.22-121.15-159.009,0-159.009,0
				s30.287,312.503,22.716,395.793c-7.572,83.292-29.719,169.265-71.364,195.767c-4.943,3.144-10.326,6.419-15.883,9.862
				c-46.471,18.938-104.799,12.092-139.766-24.814c-33.892-35.772-43.222-87.477-63.233-132.508
				c-20.011-45.032-63.286-89.218-111.374-78.455c-50.304,11.261-69.467,78.7-49.465,126.211
				c20.003,47.509,65.105,78.806,107.959,107.455c-119.363,12.678-251.842,32.231-326.689,126.074
				c-21.866,27.416-37.636,62.392-31.958,96.998c5.679,34.604,38.856,65.659,73.391,59.576
				c20.231-3.565,36.489-18.136,51.558-32.096c40.501-37.523,81.002-75.044,121.504-112.566
				c28.139-26.068,77.494-50.516,98.738-18.579c16.108,24.217-5.889,57.449-32.44,69.323
				c-26.551,11.874-57.306,12.157-83.378,25.046c-26.072,12.891-45.526,48.548-26.726,70.74
				c23.183,27.365,68.116,0.508,86.512-30.28c18.396-30.787,36.445-70.853,72.227-73.291c45.251-3.083,65.58,64.314,39.744,101.594
				c-25.836,37.277-73.776,50.412-117.222,63.435c-212.605,63.73-418.401,201.09-493.754,409.86
				c-20.326,56.316-22.856,133.619,30.283,161.204c44.939,23.33,102.823-9.388,123.888-55.43
				c21.065-46.043,15.153-99.477,6.684-149.396c-5.615-33.093-11.58-69.979,17.13-95.301c15.795-13.932,39.327-12.25,51.086,5.223
				c23.898,35.512-41.414,79.05-20.607,114.373c11.918,20.233,36.454,21.909,52.754,5.006c26.401-27.377,16.116-63.8,3.079-94.33
				c-10.531-24.662-23.1-50.403-19.385-76.96c8.076-57.734,82.954-79.554,135.396-91.544c11.189-2.558,23.101-1.224,32.934,4.697
				c38.827,23.382,0.464,83.809-30.198,101.867c-22.377,13.178-35.25,38.664-29.985,64.094
				c10.615,51.269,79.825,31.042,95.736-9.276c14.382-36.445,3.779-77.38,4.839-116.546c1.06-39.165,24.228-85.383,63.397-84.494
				c43.918,0.997,62.151,57.432,60.087,101.312c-6.496,138.101-98.407,268.607-226.245,321.251
				c-63.674,26.219-134.896,34.593-193.589,70.607c-58.692,36.015-100.262,116.731-62.088,174.042
				c13.306,19.977,34.031,33.656,50.273,51.328c16.241,17.672,28.204,43.437,18.511,65.396
				c-25.294,57.302-131.405-1.25-169.182,52.761c-13.827,19.769-11.547,46.392,3.304,65.404
				c28.29,36.213,74.722,38.651,116.457,33.32c44.113-5.636,88.944-19.675,121.035-50.462s48.076-81.201,29.228-121.482
				c-12.051-25.753-35.737-43.734-54.479-65.116c-18.741-21.385-33.239-51.65-21.837-77.699
				c10.262-23.443,37.945-34.335,63.494-35.81c25.548-1.473,51.138,4.031,76.672,2.324c60.407-4.037,106.292-44.998,142.804-95.855
				c1.386,7.305,3.445,14.53,6.287,21.628c14.185,35.431,44.969,60.923,70.199,89.559c25.23,28.634,46.477,67.06,35.466,103.6
				c-6.741,22.371-24.385,39.589-35.523,60.128c-12.546,23.134-13.932,58.005,14.046,67.87c14.339,5.056,30.138,0.885,41.656-9.041
				c68.862-59.348,67.72-176.544,3.163-237.83c-14.237-13.516-31.192-24.751-38.089-44.425c-3.362-9.591-2.728-20.388,3.002-28.783
				c22.023-32.27,86.94,6.276,103.965-27.868c11.561-23.186-18.424-46.002-44.107-49.42c-30.366-4.042-67.817-1.145-78.42-36.642
				c-2.591-8.675-2.768-17.894-1.232-26.816c2.048-11.896,4.097-23.793,6.146-35.689c40.973-78.808,81.947-157.616,122.92-236.425
				c30.882-4.43,51.448,33.811,49.163,64.926c-2.285,31.113-17.133,61.06-14.343,92.132c3.042,33.867,44.931,67.483,69.986,37.336
				c5.329-6.412,8.345-14.41,9.501-22.666c11.052-78.898-19.623-162.097-78.592-215.475c-21.086-19.088-48.327-41.454-39.191-69.98
				c5.035-15.722,19.901-26.183,36.377-27.222c34.076-2.149,58.069,20.85,80.087,42.705c18.917-19.315,4.385-53.528-18.012-68.67
				c-30.006-20.287-70.325-22.33-92.554-56.127c-9.344-14.206-9.084-33.227,2.264-45.889c25.286-28.216,74.321,6.375,103.205-15.277
				c10.166-7.621,14.811-20.37,18.938-32.384c2.866-8.342,5.731-16.685,8.597-25.027c7.871-22.912,23.97-42.08,45.227-53.702
				c20.153-11.018,47.478-24.356,87.864-34.146c52.963-12.839,88.236-1.19,117.356,13.899c24.792,12.846,43.519,34.945,52.59,61.352
				c4.308,12.542,8.616,25.083,12.924,37.624c4.127,12.015,8.772,24.764,18.938,32.384c28.885,21.652,77.92-12.939,103.206,15.277
				c11.348,12.663,11.607,31.683,2.263,45.889c-22.229,33.797-62.547,35.84-92.554,56.127
				c-22.397,15.143-36.928,49.355-18.012,68.67c22.019-21.855,46.012-44.853,80.087-42.705c16.476,1.039,31.342,11.5,36.377,27.222
				c9.136,28.526-18.104,50.892-39.191,69.98c-58.969,53.378-89.643,136.578-78.591,215.475c1.156,8.256,4.173,16.255,9.501,22.666
				c25.056,30.147,66.945-3.469,69.986-37.336c2.791-31.072-12.057-61.019-14.343-92.132c-2.285-31.115,18.282-69.355,49.164-64.926
				c40.973,78.808,81.947,157.616,122.92,236.425c2.049,11.896,4.098,23.793,6.146,35.689c1.536,8.923,1.359,18.141-1.232,26.816
				c-10.603,35.497-48.053,32.6-78.42,36.642c-25.682,3.418-55.668,26.234-44.107,49.42c17.025,34.145,81.943-4.401,103.966,27.868
				c5.729,8.395,6.364,19.192,3.001,28.783c-6.896,19.674-23.852,30.909-38.089,44.425c-64.556,61.286-65.698,178.482,3.164,237.83
				c11.518,9.927,27.316,14.098,41.656,9.041c27.978-9.866,26.591-44.736,14.046-67.87c-11.137-20.539-28.781-37.757-35.522-60.128
				c-11.012-36.54,10.236-74.966,35.465-103.6c25.229-28.636,56.014-54.128,70.199-89.559c2.843-7.098,4.901-14.323,6.288-21.628
				c36.512,50.857,82.397,91.818,142.804,95.855c25.534,1.708,51.123-3.797,76.671-2.324c25.548,1.475,53.232,12.366,63.494,35.81
				c11.401,26.049-3.096,56.315-21.837,77.699c-18.741,21.383-42.427,39.363-54.479,65.116
				c-18.848,40.281-2.863,90.695,29.228,121.482c32.092,30.787,76.922,44.827,121.035,50.462
				c41.735,5.332,88.167,2.893,116.457-33.32c14.852-19.011,17.131-45.635,3.304-65.404
				C2971.317,2934.146,2865.206,2992.699,2839.912,2935.397z"/>
		</g>
		<g>
			
				<linearGradient id="SVGID_00000157273216032004557420000012044052445589113987_" gradientUnits="userSpaceOnUse" x1="1308.9777" y1="1599.1794" x2="190.0349" y2="4664.1089">
				<stop  offset="0" style="stop-color:#4F52FF"/>
				<stop  offset="1" style="stop-color:#4042E2"/>
			</linearGradient>
			<path style="fill:url(#SVGID_00000157273216032004557420000012044052445589113987_);" d="M1132.093,3213.27
				c-100.729,21.875-285.827,19.89-392.094-4.919c-34.885-8.144-59.431-38.606-59.431-73.566V2080.969h514.834v1055.104
				C1195.402,3173.064,1169.142,3205.223,1132.093,3213.27z"/>
			<path style="fill:#7D97F4;" d="M1208.055,2191.324H668.111c-3.5,0-6.337-2.837-6.337-6.337v-158.284
				c0-6.616,5.363-11.979,11.979-11.979h528.661c6.616,0,11.979,5.363,11.979,11.979v158.284
				C1214.392,2188.487,1211.555,2191.324,1208.055,2191.324z"/>
			<g>
				<rect x="703.653" y="2039.929" style="opacity:0.6;fill:#FFFFFF;" width="19.843" height="128.197"/>
				<rect x="744.473" y="2039.929" style="opacity:0.6;fill:#FFFFFF;" width="19.843" height="128.197"/>
				<rect x="785.293" y="2039.929" style="opacity:0.6;fill:#FFFFFF;" width="19.843" height="128.197"/>
				<rect x="826.112" y="2039.929" style="opacity:0.6;fill:#FFFFFF;" width="19.843" height="128.197"/>
				<rect x="866.932" y="2039.929" style="opacity:0.6;fill:#FFFFFF;" width="19.843" height="128.197"/>
				<rect x="907.752" y="2039.929" style="opacity:0.6;fill:#FFFFFF;" width="19.843" height="128.197"/>
				<rect x="948.571" y="2039.929" style="opacity:0.6;fill:#FFFFFF;" width="19.843" height="128.197"/>
				<rect x="989.391" y="2039.929" style="opacity:0.6;fill:#FFFFFF;" width="19.843" height="128.197"/>
				<rect x="1030.211" y="2039.929" style="opacity:0.6;fill:#FFFFFF;" width="19.843" height="128.197"/>
				<rect x="1071.031" y="2039.929" style="opacity:0.6;fill:#FFFFFF;" width="19.843" height="128.197"/>
				<rect x="1111.85" y="2039.929" style="opacity:0.6;fill:#FFFFFF;" width="19.843" height="128.197"/>
				<rect x="1152.67" y="2039.929" style="opacity:0.6;fill:#FFFFFF;" width="19.843" height="128.197"/>
			</g>
			<path style="fill:#7D97F4;" d="M1080.969,2969.303H785.275c-17.055,0-30.881-13.826-30.881-30.881v-548.457
				c0-17.055,13.826-30.881,30.881-30.881h295.694c17.055,0,30.881,13.826,30.881,30.881v548.457
				C1111.85,2955.478,1098.024,2969.303,1080.969,2969.303z"/>
		</g>
		<g>
			
				<linearGradient id="SVGID_00000033327851214909780330000001830333028836454558_" gradientUnits="userSpaceOnUse" x1="1339.299" y1="2672.5618" x2="1864.453" y2="1798.9871">
				<stop  offset="0" style="stop-color:#FEBBBA"/>
				<stop  offset="1" style="stop-color:#FF928E"/>
			</linearGradient>
			
				<ellipse style="fill:url(#SVGID_00000033327851214909780330000001830333028836454558_);" cx="1121.771" cy="3034.411" rx="216.069" ry="212.873"/>
			
				<linearGradient id="SVGID_00000163773955066440655990000016570616830723621259_" gradientUnits="userSpaceOnUse" x1="876.2668" y1="2800.8059" x2="418.5773" y2="3354.6104" gradientTransform="matrix(0.9264 -0.3764 0.3764 0.9264 -648.2513 463.2647)">
				<stop  offset="0" style="stop-color:#FF928E"/>
				<stop  offset="1" style="stop-color:#FE7062"/>
			</linearGradient>
			<path style="fill:url(#SVGID_00000163773955066440655990000016570616830723621259_);" d="M1271.397,3006.577l-281.209,112.569
				c-5.905,2.364-12.637-0.436-15.036-6.253l-12.118-29.384c-2.399-5.818,0.442-12.45,6.347-14.813l281.209-112.569
				c5.905-2.364,12.636,0.436,15.036,6.253l12.118,29.384C1280.144,2997.581,1277.302,3004.213,1271.397,3006.577z"/>
		</g>
	</g>
</g>
</svg>
